<svg width="64" height="64" viewBox="0 0 64 64" fill="none" xmlns="http://www.w3.org/2000/svg">
  <defs>
    <linearGradient id="goldBorder" x1="0%" y1="0%" x2="100%" y2="100%">
      <stop offset="0%" stop-color="#D4A843" />
      <stop offset="50%" stop-color="#F0D078" />
      <stop offset="100%" stop-color="#C4993B" />
    </linearGradient>
    <linearGradient id="mateBody" x1="24" y1="24" x2="40" y2="52" gradientUnits="userSpaceOnUse">
      <stop offset="0%" stop-color="#D4A843" />
      <stop offset="60%" stop-color="#C4993B" />
      <stop offset="100%" stop-color="#8B6914" />
    </linearGradient>
    <linearGradient id="rimGrad" x1="0%" y1="0%" x2="100%" y2="0%">
      <stop offset="0%" stop-color="#C4993B" />
      <stop offset="40%" stop-color="#F0D078" />
      <stop offset="100%" stop-color="#C4993B" />
    </linearGradient>
    <linearGradient id="bombillaGrad" x1="36" y1="10" x2="33" y2="42" gradientUnits="userSpaceOnUse">
      <stop offset="0%" stop-color="#E8CC7A" />
      <stop offset="50%" stop-color="#D4A843" />
      <stop offset="100%" stop-color="#A07828" />
    </linearGradient>
  </defs>

  <!-- Dark background circle -->
  <circle cx="32" cy="32" r="31" fill="#1A1A2E" />
  <!-- Gold outer ring -->
  <circle cx="32" cy="32" r="30" fill="none" stroke="url(#goldBorder)" stroke-width="2" />
  <!-- Inner decorative ring -->
  <circle cx="32" cy="32" r="27" fill="none" stroke="#C4993B" stroke-width="0.5" opacity="0.5" />

  <!-- Laurel left -->
  <path d="M10 37 C12 35, 14.5 36, 13 38.5" fill="#C4993B" opacity="0.5" />
  <path d="M11 40 C13 38, 15.5 39, 14 41.5" fill="#C4993B" opacity="0.45" />
  <path d="M12.5 43 C14.5 41, 17 42, 15.5 44.5" fill="#C4993B" opacity="0.4" />
  <path d="M14.5 46 C16.5 44, 19 45, 17 47" fill="#C4993B" opacity="0.35" />
  <path d="M12 35 C14 40, 16 45, 19 49" stroke="#C4993B" stroke-width="0.5" fill="none" opacity="0.4" />

  <!-- Laurel right -->
  <path d="M54 37 C52 35, 49.5 36, 51 38.5" fill="#C4993B" opacity="0.5" />
  <path d="M53 40 C51 38, 48.5 39, 50 41.5" fill="#C4993B" opacity="0.45" />
  <path d="M51.5 43 C49.5 41, 47 42, 48.5 44.5" fill="#C4993B" opacity="0.4" />
  <path d="M49.5 46 C47.5 44, 45 45, 47 47" fill="#C4993B" opacity="0.35" />
  <path d="M52 35 C50 40, 48 45, 45 49" stroke="#C4993B" stroke-width="0.5" fill="none" opacity="0.4" />

  <!-- Yerba herbs -->
  <path d="M25 26.5 C27 22, 30 20, 32 19.5 C34 20, 37 22, 39 26.5" fill="#3D5A1E" opacity="0.7" />
  <path d="M28 24 C29 21.5, 30.5 21, 30 23.5" stroke="#5A7A2E" stroke-width="0.6" fill="none" stroke-linecap="round" />
  <path d="M34 23 C35 20.5, 37 21.5, 36 24" stroke="#5A7A2E" stroke-width="0.6" fill="none" stroke-linecap="round" />
  <path d="M31 22 C31.5 19.5, 33 19.5, 32.5 22" stroke="#4A6B25" stroke-width="0.5" fill="none" stroke-linecap="round" />

  <!-- Mate gourd body -->
  <path d="M24 28 C22 32, 22 37, 23.5 42 C25 47, 28 50, 32 51 C36 50, 39 47, 40.5 42 C42 37, 42 32, 40 28" fill="url(#mateBody)" stroke="#8B6914" stroke-width="0.6" />
  <!-- Highlight -->
  <path d="M27 31 C26 34, 26 38, 27 42" stroke="#F0D078" stroke-width="0.8" fill="none" opacity="0.25" stroke-linecap="round" />
  <!-- Decorative band -->
  <path d="M25 38 C28 39.5, 36 39.5, 39 38" stroke="#8B6914" stroke-width="0.7" fill="none" opacity="0.5" />
  <path d="M25.5 39.5 C28.5 41, 35.5 41, 38.5 39.5" stroke="#8B6914" stroke-width="0.4" fill="none" opacity="0.3" />

  <!-- Virola -->
  <ellipse cx="32" cy="27.5" rx="9" ry="2.8" fill="url(#rimGrad)" stroke="#8B6914" stroke-width="0.5" />
  <ellipse cx="32" cy="26.8" rx="6" ry="1" fill="none" stroke="#F0D078" stroke-width="0.4" opacity="0.5" />

  <!-- Bombilla -->
  <line x1="37.5" y1="13" x2="34" y2="40" stroke="url(#bombillaGrad)" stroke-width="1.8" stroke-linecap="round" />
  <line x1="37.9" y1="14" x2="34.5" y2="39" stroke="#F0D078" stroke-width="0.35" opacity="0.4" stroke-linecap="round" />
  <path d="M35.8 12 L39.2 12 L39.5 13.5 L38 14 L37 14 L35.5 13.5 Z" fill="#D4A843" stroke="#A07828" stroke-width="0.4" />
  <ellipse cx="33.8" cy="41" rx="2.5" ry="1.3" fill="#D4A843" stroke="#A07828" stroke-width="0.4" />

  <!-- Diamonds -->
  <path d="M32 57 L33 55.5 L32 54 L31 55.5Z" fill="#D4A843" opacity="0.6" />
  <path d="M32 5.5 L33 7 L32 8.5 L31 7Z" fill="#D4A843" opacity="0.6" />
</svg>
